<svg id="Layer_1" data-name="Layer 1" xmlns="http://www.w3.org/2000/svg" viewBox="0 0 142.37 130.17"><defs><style>.cls-1{fill:#fff;}</style></defs><title>Boat</title><path class="cls-1" d="M67.21,56.68c0-1.43,0-2.61,0-3.8s.46-1.71,1.71-1.73,2.52,0,4,0V22.4A7,7,0,0,1,73,21.28a1.32,1.32,0,0,1,1.72-1.14,3.29,3.29,0,0,1,.78.32l16.06,8c.65.32,1.24.67,1.24,1.5s-.57,1.18-1.22,1.5c-5,2.48-10,5-15,7.43a1.28,1.28,0,0,0-.84,1.36c0,3.58,0,7.16,0,10.92h4c1.22,0,1.68.5,1.7,1.76s0,2.36,0,3.7c2-.17,3.82-.28,5.65-.49a84.92,84.92,0,0,0,22.28-5.26,37.48,37.48,0,0,0,10.92-6.27c1.95-1.71,3.6-3.6,3.8-6.38a1.28,1.28,0,0,1,1.55-1.16c.79.1,1.22.67,1.21,1.62a24.41,24.41,0,0,1-2.57,10.71c-3,6.07-7.65,10.62-13.25,14.29a61.42,61.42,0,0,1-25,9.19,74.39,74.39,0,0,1-35.56-3c-7.95-2.72-15.12-6.74-20.88-13A27.75,27.75,0,0,1,22,41.37a24.12,24.12,0,0,1-.17-2.82A1.37,1.37,0,0,1,23.13,37a1.36,1.36,0,0,1,1.47,1.39,7.88,7.88,0,0,0,2.49,4.94,31.75,31.75,0,0,0,10.65,6.85,77.68,77.68,0,0,0,21,5.55C61.51,56.12,64.27,56.36,67.21,56.68Zm55.08-10A40.19,40.19,0,0,1,113,52.37c-9.45,4.27-19.47,6.2-29.74,6.94A114.71,114.71,0,0,1,54.86,58c-10.29-1.84-20.18-4.71-28.61-11.45.07.21.11.36.17.49.35.74.67,1.49,1.06,2.2,3.12,5.68,7.79,9.82,13.28,13.1a61.77,61.77,0,0,0,25.73,8.14A72.17,72.17,0,0,0,95.56,67.8C103.09,65.46,110,62,115.67,56.41A26.9,26.9,0,0,0,122.29,46.65ZM75.78,36.11l12.39-6.17L75.78,23.78ZM78.54,54H70.11v2.65h8.43Z"/><path class="cls-1" d="M98.5,84.33c-3.87,3-6.57,3-10.49,0a7.06,7.06,0,0,1-10.14-.06l-.66.58a5.92,5.92,0,0,1-4.46,1.54,1.73,1.73,0,0,1-1.66-1.78,1.65,1.65,0,0,1,1.66-1.76c1.8.06,2.8-1,3.51-2.49a1.71,1.71,0,0,1,1.62-1.16,1.74,1.74,0,0,1,1.6,1.19,3.65,3.65,0,0,0,6.89,0A1.8,1.8,0,0,1,88,79.24a1.83,1.83,0,0,1,1.64,1.28,3.59,3.59,0,0,0,3.21,2.38,3.68,3.68,0,0,0,3.89-2.32c.35-.77.82-1.34,1.69-1.34s1.33.57,1.7,1.34a3.39,3.39,0,0,0,3.33,2.3,1.7,1.7,0,0,1,1.74,1.79,1.77,1.77,0,0,1-1.77,1.77A5.91,5.91,0,0,1,99.32,85C99,84.81,98.77,84.57,98.5,84.33Z"/><path class="cls-1" d="M48.43,84.47c-3.87,3-6.56,3-10.48,0a7.06,7.06,0,0,1-10.14-.06l-.67.58a5.9,5.9,0,0,1-4.46,1.54A1.73,1.73,0,0,1,21,84.78,1.65,1.65,0,0,1,22.69,83c1.79.06,2.79-1,3.5-2.49a1.72,1.72,0,0,1,1.63-1.16,1.76,1.76,0,0,1,1.6,1.19,3.65,3.65,0,0,0,6.89,0A1.78,1.78,0,0,1,38,79.37a1.83,1.83,0,0,1,1.65,1.28A3.57,3.57,0,0,0,42.82,83a3.67,3.67,0,0,0,3.89-2.32,1.86,1.86,0,0,1,1.7-1.34c.86,0,1.32.57,1.69,1.34A3.4,3.4,0,0,0,53.44,83a1.7,1.7,0,0,1,1.73,1.79,1.76,1.76,0,0,1-1.77,1.77,5.9,5.9,0,0,1-4.14-1.4C49,84.94,48.7,84.7,48.43,84.47Z"/><path class="cls-1" d="M118.14,107.76c-3.87,3-6.57,3-10.49,0a7.06,7.06,0,0,1-10.14-.05l-.67.58a5.89,5.89,0,0,1-4.45,1.54,1.73,1.73,0,0,1-1.66-1.78,1.65,1.65,0,0,1,1.66-1.76c1.8.06,2.8-1,3.51-2.49a1.71,1.71,0,0,1,1.62-1.16,1.74,1.74,0,0,1,1.6,1.19,3.65,3.65,0,0,0,6.89,0,1.78,1.78,0,0,1,1.67-1.23,1.82,1.82,0,0,1,1.64,1.28,3.57,3.57,0,0,0,3.21,2.37,3.68,3.68,0,0,0,3.89-2.31c.35-.78.82-1.34,1.69-1.34s1.33.57,1.69,1.34a3.41,3.41,0,0,0,3.34,2.3,1.7,1.7,0,0,1,1.74,1.79,1.76,1.76,0,0,1-1.77,1.76,5.9,5.9,0,0,1-4.15-1.39C118.68,108.24,118.41,108,118.14,107.76Z"/><path class="cls-1" d="M68.07,107.89c-3.87,3-6.57,3-10.48,0a7.07,7.07,0,0,1-10.14-.06l-.67.58A5.9,5.9,0,0,1,42.32,110a1.72,1.72,0,0,1-1.65-1.78,1.65,1.65,0,0,1,1.66-1.76c1.79.06,2.79-1,3.5-2.49a1.71,1.71,0,0,1,1.63-1.16,1.76,1.76,0,0,1,1.6,1.19A3.65,3.65,0,0,0,56,104a1.76,1.76,0,0,1,1.66-1.23,1.81,1.81,0,0,1,1.64,1.28,3.57,3.57,0,0,0,3.21,2.37,3.66,3.66,0,0,0,3.89-2.31,1.85,1.85,0,0,1,1.7-1.34c.86,0,1.32.57,1.69,1.34a3.39,3.39,0,0,0,3.33,2.3,1.69,1.69,0,0,1,1.74,1.79A1.76,1.76,0,0,1,73,110a5.89,5.89,0,0,1-4.14-1.39C68.61,108.37,68.34,108.12,68.07,107.89Z"/></svg>