<svg id="Layer_1" data-name="Layer 1" xmlns="http://www.w3.org/2000/svg" viewBox="0 0 142.37 130.17"><defs><style>.cls-1{fill:#fff;}</style></defs><title>fishing</title><path class="cls-1" d="M101.26,11.72a2.11,2.11,0,0,0,.38.17,6.93,6.93,0,0,1,5.51,7q0,9.65,0,19.31a2.09,2.09,0,0,0,.63,1.56,27.29,27.29,0,0,1,7.68,17.28c.36,5.65.2,11.32.23,17a1.38,1.38,0,0,0,.86,1.49,3.5,3.5,0,0,1,1.95,3.17c.05,1.13,0,2.26,0,3.38a3.28,3.28,0,0,1-2.1,3.13,1,1,0,0,0-.71,1.12c0,3.21,0,6.41,0,9.61a9.27,9.27,0,0,1-18.24,2.28,8.57,8.57,0,0,1-.29-2c0-2.28,0-4.56,0-6.85a1.42,1.42,0,0,1,.6-1.1A1.47,1.47,0,0,1,99,88.6c1.14,1,2.2,2.16,3.29,3.25.48.49.63,1.06.11,1.57s-1.05.35-1.52-.19a11.84,11.84,0,0,0-1.7-1.6c0,2.44-.53,4.87.49,7.19a7.39,7.39,0,0,0,8,4.31,7.23,7.23,0,0,0,6.07-6.9c.09-3.38,0-6.77,0-10.15a1.05,1.05,0,0,0-.5-.77A3.82,3.82,0,0,1,111,81.66c0-.92,0-1.84,0-2.76a3.61,3.61,0,0,1,2.17-3.48.88.88,0,0,0,.58-.93c0-5.19.09-10.39-.09-15.58a27,27,0,0,0-7-17.36,12.9,12.9,0,0,0-8.73-4.63c-5.49-.44-9.71,4.55-8.13,9.6a7.74,7.74,0,0,0,7.3,5.25A7.44,7.44,0,0,0,104,46.4c0-.12.08-.23.11-.34a.92.92,0,0,1,1.18-.79.93.93,0,0,1,.69,1.31,9.28,9.28,0,1,1-11.89-11,11.85,11.85,0,0,1,10.16,1.28l1,.59c0-.36.06-.58.06-.81,0-5.88,0-11.75,0-17.62a5.25,5.25,0,0,0-4.8-5.44,4.93,4.93,0,0,0-3.85,1.27c-.32.27-.6.57-.9.86L62.43,49.06c-.21.21-.44.4-.59.53l5,4.9c.44-.45,1-1.06,1.59-1.63a2.85,2.85,0,0,1,4.21,0C73.8,54,75,55.24,76.17,56.46a2.74,2.74,0,0,1,0,4q-2.5,2.6-5.09,5.1a3,3,0,0,1-4.5,0Q65,63.94,63.33,62.29a2.85,2.85,0,0,1,0-4.39c.6-.6,1.22-1.19,1.77-1.73l-4.77-4.79L54,57.7s.14.19.25.32a4.33,4.33,0,0,1-.15,6.23c-3,3-5.94,6-8.91,9L33.77,84.68a4.51,4.51,0,0,1-6.9,0l-1.51-1.51a4.37,4.37,0,0,1,0-6.6c2.49-2.51,5-5,7.49-7.49L45.48,56.42c2.3-2.3,4.51-2.39,7-.21l.73-.7q20.26-20.2,40.5-40.43A10.89,10.89,0,0,1,99,11.72Zm-71,72.85A7,7,0,0,0,32,83.63Q42.4,73.33,52.73,63a2.48,2.48,0,0,0,0-3.72c-.59-.62-1.22-1.21-1.82-1.83a2.45,2.45,0,0,0-3.8-.1Q36.77,67.63,26.51,78a3.18,3.18,0,0,0-.79,1.89C25.62,81.43,28.67,84.39,30.29,84.57ZM70.45,53.69a5.5,5.5,0,0,0-.87.54c-1.69,1.66-3.36,3.34-5,5a1.06,1.06,0,0,0,0,1.7L68,64.34a1,1,0,0,0,1.67,0c1.62-1.65,3.27-3.27,4.89-4.91.67-.67.69-1.15,0-1.82Q73,55.92,71.33,54.29A5.42,5.42,0,0,0,70.45,53.69Zm46.11,26.59h0c0-.5,0-1,0-1.51a1.8,1.8,0,0,0-3.59-.09c0,1.09,0,2.19,0,3.28a1.63,1.63,0,0,0,1.78,1.68A1.7,1.7,0,0,0,116.56,82C116.59,81.41,116.56,80.85,116.56,80.28Z"/><path class="cls-1" d="M63.75,105.77a17.76,17.76,0,0,1-.59,8.18,25.82,25.82,0,0,1-1.8,3.84,1.48,1.48,0,0,1-1.19.65c-.35,0-.78-.6-.9-1a19.81,19.81,0,0,0-14.09-14.12,1.87,1.87,0,0,1-1.08-.86c-.27-.63.35-.92.79-1.2A17.37,17.37,0,0,1,56,98.84l1,.09c.29-2.22.47-4.38.87-6.5C60.15,80,67.72,72.62,79.89,69.76A41.89,41.89,0,0,1,90.3,68.7c2.54,0,3.63,1.14,3.66,3.65.07,6.68-1,13.1-4.25,19-3.95,7.27-10.17,11.49-18.14,13.22C69,105.15,66.43,105.38,63.75,105.77ZM47.55,102A22.46,22.46,0,0,1,60.61,115c.17-.39.31-.67.41-1a17.45,17.45,0,0,0,.63-8.78c-.22-1.23.14-1.61,1.41-1.73a73.08,73.08,0,0,0,7.85-.91c8-1.65,14.12-5.94,17.76-13.41.67-1.38,1.18-2.82,1.8-4.31-.32,0-.46,0-.61,0-5.91.13-9.89-3-13-7.67-.36-.53-.4-1.11.23-1.46s1.06-.1,1.41.49A13.24,13.24,0,0,0,79.74,78c2.7,3.25,6,5.28,10.39,5,.6,0,.88-.23,1-.84A41.8,41.8,0,0,0,92,72.38c0-1.63-.19-1.83-1.86-1.85a39.58,39.58,0,0,0-12.29,1.63c-7.45,2.28-13.1,6.66-16.26,13.93A33.87,33.87,0,0,0,59,99.61c0,1.12-.46,1.42-1.57,1.34-1.71-.13-3.43-.25-5.14-.21A11.66,11.66,0,0,0,47.55,102Z"/><path class="cls-1" d="M87.15,75.44a1.65,1.65,0,0,0-1.56-1.61,1.48,1.48,0,0,0-1.47,1.45,1.44,1.44,0,0,0,1.41,1.58A1.58,1.58,0,0,0,87.15,75.44Z"/><path class="cls-1" d="M87.15,75.44a1.58,1.58,0,0,1-1.62,1.42,1.44,1.44,0,0,1-1.41-1.58,1.48,1.48,0,0,1,1.47-1.45A1.65,1.65,0,0,1,87.15,75.44Z"/></svg>