<svg id="Layer_1" data-name="Layer 1" xmlns="http://www.w3.org/2000/svg" viewBox="0 0 142.37 130.17"><defs><style>.cls-1{fill:#fff;}.cls-2{fill:#3a5829;}</style></defs><title>hike</title><path class="cls-1" d="M36.7,99.49c-.13.52-.17,15.74-.06,16.56H86.05v-1.11a1.49,1.49,0,0,1,1.24-1.5,1.41,1.41,0,0,1,1.43,1.22c0,.45,0,.89,0,1.33.43.12,19.71.14,20.31,0V99.56c-.25.21-.44.35-.61.51a12.57,12.57,0,0,1-3.58,2.4,18.06,18.06,0,0,1-3.7,1.23A15.28,15.28,0,0,1,99,104c-1,.09-1.92.14-2.89.18a6.1,6.1,0,0,1-.84-.13,1.45,1.45,0,0,1-1-1.38,1.34,1.34,0,0,1,1.19-1.16,1.23,1.23,0,0,1,.27,0,16.16,16.16,0,0,0,3.26-.14,17.65,17.65,0,0,0,3.13-.68,12,12,0,0,0,3.33-1.63,10.28,10.28,0,0,0,3.13-3.61,3.89,3.89,0,0,0,.44-1.89c0-1.57,0-3.15,0-4.72,0-.19,0-.39,0-.66-.16.11-.29.17-.38.25a12.74,12.74,0,0,1-4.54,2.65,19.93,19.93,0,0,1-2.55.68,13.9,13.9,0,0,1-1.69.2,4.85,4.85,0,0,0-.53.08,3.76,3.76,0,0,1-2-.14,1.39,1.39,0,0,1-.67-1.71,1.24,1.24,0,0,1,1.16-.79c.94,0,1.89-.08,2.83-.18.54-.06,1.06-.26,1.59-.36a8.63,8.63,0,0,0,2.06-.7,9,9,0,0,0,4.68-4.6,1.3,1.3,0,0,0,.11-.51c0-1.33,0-2.65,0-4,0-.09,0-.19-.06-.33-.5.35-1,.68-1.42,1A9.88,9.88,0,0,1,104.81,81c-.73.19-1.46.4-2.19.58a4,4,0,0,1-.7.06l-1,.12a1.55,1.55,0,0,1-1.57-.54,1.34,1.34,0,0,1-.13-1.36,1.08,1.08,0,0,1,1-.72c.66-.06,1.32-.11,2-.22.46-.07.91-.27,1.38-.35a6.63,6.63,0,0,0,1.38-.48,7.52,7.52,0,0,0,4-3.77,1.26,1.26,0,0,0,.11-.51c0-2,0-3.94,0-5.9a2.33,2.33,0,0,0,0-.34c-.57.33-1.1.66-1.65,1a10,10,0,0,1-3.05,1.08c-.35.06-.7.16-1,.19a1.39,1.39,0,0,1-1.35-1.36,1.43,1.43,0,0,1,1.21-1.32,8.47,8.47,0,0,0,4.79-2.23,5.14,5.14,0,0,0,1.16-1.7,1.5,1.5,0,0,1,1-1,1.33,1.33,0,0,1,1.6.79,6.29,6.29,0,0,0,3.73,3.52,9.16,9.16,0,0,0,2.46.67,1.43,1.43,0,0,1,1,.92,1.39,1.39,0,0,1-.53,1.51,1.57,1.57,0,0,1-1.28.19c-.45-.1-.9-.23-1.34-.35a10.16,10.16,0,0,1-3.4-1.58,2.71,2.71,0,0,0-.41-.23s-.07,0-.16,0c0,.18,0,.37,0,.56,0,1.72,0,3.44,0,5.15a2.56,2.56,0,0,0,.32,1.28,7.42,7.42,0,0,0,3.34,3.24,11.7,11.7,0,0,0,2.72,1,22.84,22.84,0,0,0,2.43.33,1.47,1.47,0,0,1,1.22,1.22,1.34,1.34,0,0,1-1,1.35,1.71,1.71,0,0,1-1,.06,3.55,3.55,0,0,0-.47-.08,11.52,11.52,0,0,1-2.46-.42A11.94,11.94,0,0,1,114,80.12c-.56-.3-1.07-.68-1.6-1-.18-.12-.34-.25-.6-.44,0,.27,0,.44,0,.61,0,1,0,1.93,0,2.9a3.92,3.92,0,0,0,.6,2.16,8.77,8.77,0,0,0,3.79,3.57,11.77,11.77,0,0,0,2.58,1,13.07,13.07,0,0,0,2.78.42c.6,0,1.21.09,1.81.16a1.08,1.08,0,0,1,1,1,1.24,1.24,0,0,1-.56,1.34,2.37,2.37,0,0,1-.91.25,6.09,6.09,0,0,1-1.13,0c-.35,0-.7-.12-1-.13a13.66,13.66,0,0,1-2.3-.4,13.34,13.34,0,0,1-2.22-.71,12.24,12.24,0,0,1-3.07-1.73l-1.27-1c0,.27,0,.44,0,.61,0,1.74,0,3.48,0,5.21a2.25,2.25,0,0,0,.25,1,10,10,0,0,0,4.56,4.83,13.73,13.73,0,0,0,4,1.39,18.18,18.18,0,0,0,4.42.37,1.28,1.28,0,0,1,1.34.66,1.32,1.32,0,0,1-.6,1.84,2.38,2.38,0,0,1-.83.18c-.73,0-1.47,0-2.19-.08-.89-.08-1.78-.19-2.66-.35s-1.47-.4-2.21-.59a13.87,13.87,0,0,1-2.23-.9,14.6,14.6,0,0,1-3.39-2.33l-.39-.36c-.13.41-.17,15.67,0,16.48l.66,0q6.26,0,12.5,0a1.62,1.62,0,0,1,.91.22,1.34,1.34,0,0,1,0,2.26,1.36,1.36,0,0,1-.8.21H20.9a1.81,1.81,0,0,1-1.13-.22,1.34,1.34,0,0,1,0-2.23,1.54,1.54,0,0,1,1-.24H33.87V99.53l-.64.58a14.06,14.06,0,0,1-3.51,2.34A16.5,16.5,0,0,1,26,103.69a20.87,20.87,0,0,1-5.11.51A3.91,3.91,0,0,1,20,104a1.29,1.29,0,0,1,.28-2.48,1.19,1.19,0,0,1,.32,0,15.11,15.11,0,0,0,3.8-.2,14.28,14.28,0,0,0,3.19-.83,12.79,12.79,0,0,0,2.35-1.15,10.15,10.15,0,0,0,3.57-4,3.86,3.86,0,0,0,.43-1.89c0-1.55,0-3.11,0-4.67v-.66a2.36,2.36,0,0,0-.36.22,12.87,12.87,0,0,1-3.72,2.37,13.6,13.6,0,0,1-2.36.78,13.31,13.31,0,0,1-2.94.44c-.24,0-.49.1-.73.13a4.32,4.32,0,0,1-1.64-.18,1,1,0,0,1-.69-.69,1.28,1.28,0,0,1,1.09-1.82c.93,0,1.86-.08,2.78-.18.57-.07,1.13-.27,1.7-.37a8.16,8.16,0,0,0,2-.69A8.84,8.84,0,0,0,33.52,84a3.21,3.21,0,0,0,.39-1.57c0-1,0-2.11,0-3.17,0-.17,0-.34,0-.59-.53.37-1,.71-1.48,1A9.54,9.54,0,0,1,29.66,81c-.72.21-1.45.41-2.19.59a4.34,4.34,0,0,1-.63.07c-.36,0-.72.06-1.07.13a1.57,1.57,0,0,1-1.78-1,1.32,1.32,0,0,1,.92-1.64c.62-.09,1.24-.12,1.86-.22s1.06-.26,1.6-.36a6.66,6.66,0,0,0,1.38-.49,7.43,7.43,0,0,0,4.06-3.9,1,1,0,0,0,.09-.41v-6a.91.91,0,0,0,0-.22,4.61,4.61,0,0,0-.58.33,9.15,9.15,0,0,1-2.5,1.25,22.06,22.06,0,0,1-2.15.61A1.39,1.39,0,0,1,27,69.18a1.33,1.33,0,0,1,1-2.07,8.4,8.4,0,0,0,5-2.45,5.15,5.15,0,0,0,1-1.56,1.36,1.36,0,0,1,1.77-.93,1.27,1.27,0,0,1,.84.82,6.05,6.05,0,0,0,3,3.16,9.29,9.29,0,0,0,3.13,1,1.47,1.47,0,0,1,1.08,1,1.44,1.44,0,0,1-.56,1.45,1.63,1.63,0,0,1-1.29.19c-.45-.1-.89-.23-1.34-.35a10.79,10.79,0,0,1-3.69-1.78.88.88,0,0,0-.2-.07,2.29,2.29,0,0,0-.07.34c0,2,0,3.9,0,5.85a2,2,0,0,0,.3.9,7.36,7.36,0,0,0,3.3,3.18,11.73,11.73,0,0,0,2.72,1c.82.18,1.66.22,2.48.34a1.37,1.37,0,0,1,1.18,1.24,1.33,1.33,0,0,1-.93,1.31,1.73,1.73,0,0,1-1.1,0,1.89,1.89,0,0,0-.47-.06,11.7,11.7,0,0,1-2.35-.42,11.89,11.89,0,0,1-3.82-1.64c-.41-.26-.8-.57-1.23-.88a1.06,1.06,0,0,0-.09.31c0,1.32,0,2.64,0,4a2.28,2.28,0,0,0,.27.85,8.88,8.88,0,0,0,4,4,11.77,11.77,0,0,0,2.58,1,13.17,13.17,0,0,0,3,.44c.53,0,1.07.09,1.6.14a1.17,1.17,0,0,1,1.05,1.14,1.25,1.25,0,0,1-1,1.39,3.89,3.89,0,0,1-2.06,0,.75.75,0,0,0-.21,0,11.82,11.82,0,0,1-2.83-.43,13.75,13.75,0,0,1-4.6-2c-.51-.33-1-.75-1.45-1.12l-.4-.3c0,.24,0,.41,0,.59,0,1.78,0,3.57,0,5.36a2.17,2.17,0,0,0,.17.71,10,10,0,0,0,4.89,5.13,13.33,13.33,0,0,0,3.61,1.2,21,21,0,0,0,4.69.4,1.26,1.26,0,0,1,1.4,1.32A1.34,1.34,0,0,1,50.5,104a2.64,2.64,0,0,1-.78.16c-.73,0-1.47,0-2.19-.08a26.55,26.55,0,0,1-2.66-.36c-.74-.14-1.47-.4-2.2-.59a12.05,12.05,0,0,1-2.24-.9,12.53,12.53,0,0,1-3.37-2.35C37,99.8,36.86,99.68,36.7,99.49Z"/><path class="cls-1" d="M87.23,38.21c-.34.47-.66.9-1,1.34-.92,1.33-1.84,2.68-2.77,4a1.41,1.41,0,0,1-2.2,0c-1-1.5-2.07-3-3.11-4.46-.16-.23-.33-.45-.55-.73-.13.16-.24.27-.32.39-1,1.49-2.09,3-3.14,4.46a3.16,3.16,0,0,1-.37.45,1.28,1.28,0,0,1-1.92,0A9.53,9.53,0,0,1,71,42.52c-.91-1.29-1.8-2.58-2.7-3.87-.06-.09-.18-.14-.3-.24-.5.7-1,1.36-1.42,2-.72,1-1.45,2-2.15,3.08a1.44,1.44,0,0,1-2.31,0c-1-1.47-2-2.93-3-4.39l-.5-.69a4.85,4.85,0,0,0-.34.46q-1.34,2.1-2.66,4.21Q53,47.16,50.47,51.26c-1.3,2.08-2.62,4.15-3.92,6.22-.35.56-.67,1.13-1,1.67A1.47,1.47,0,0,1,44.1,60,1.29,1.29,0,0,1,43,58.14c.39-.73.83-1.43,1.26-2.13q1.3-2.09,2.62-4.17c.69-1.1,1.4-2.2,2.1-3.3l2.78-4.43,3.9-6.24q1.29-2.05,2.6-4.11l5.22-8.33c1.22-1.94,2.47-3.87,3.69-5.81,1.58-2.51,3.18-5,4.7-7.55a1.44,1.44,0,0,1,2.41,0c.63,1.12,1.35,2.19,2,3.28q1.23,2,2.44,4c1,1.67,2,3.35,3,5Q84.5,28.64,87.19,33l4.92,8L97,48.87l4.69,7.61c.33.54.65,1.08,1,1.62a1.33,1.33,0,0,1-1,1.86,1.44,1.44,0,0,1-1.41-.74c-.7-1.12-1.39-2.25-2.08-3.38L94.9,50.56l-4.18-6.8q-1.6-2.61-3.23-5.22A4,4,0,0,0,87.23,38.21Z"/><path class="cls-1" d="M74.82,91.51a1.45,1.45,0,0,1-1.3-1A1.37,1.37,0,0,1,74.08,89c.39-.24.81-.43,1.19-.68a5.54,5.54,0,0,0,1.38-1.59,1.29,1.29,0,0,1,2-.21,1.4,1.4,0,0,1,.23,1.6,7.61,7.61,0,0,1-3.64,3.27A2.34,2.34,0,0,1,74.82,91.51Z"/><path class="cls-1" d="M85,104.67a1.4,1.4,0,0,1,1.18.56,7.76,7.76,0,0,1,1.63,2.27,16.23,16.23,0,0,1,.62,1.64,1.39,1.39,0,0,1-.66,1.35,1.29,1.29,0,0,1-2-.85,6,6,0,0,0-1.56-2.55,3.19,3.19,0,0,1-.46-.57A1.28,1.28,0,0,1,85,104.67Z"/><path class="cls-1" d="M69.3,106.08c-.76-.1-1.52-.17-2.27-.32a3.94,3.94,0,0,1-1.17-.47,1.27,1.27,0,0,1-.64-1.25A1.24,1.24,0,0,1,66,103a1.63,1.63,0,0,1,1.3,0,3.69,3.69,0,0,0,1.54.35c.59,0,1.18,0,1.77,0a1.32,1.32,0,0,1,1.28,1.31A1.36,1.36,0,0,1,70.59,106c-.42,0-.85,0-1.28,0Z"/><path class="cls-1" d="M67.05,67.39A3.5,3.5,0,0,1,67,68a4.48,4.48,0,0,0,0,2.27,4.22,4.22,0,0,1,.11,1.12,1.29,1.29,0,0,1-1.29,1.23,1.32,1.32,0,0,1-1.16-.72,4.4,4.4,0,0,1-.28-1,6.47,6.47,0,0,1-.18-2.23,6.67,6.67,0,0,1,.41-2,1.33,1.33,0,0,1,2.08-.32A1.24,1.24,0,0,1,67.05,67.39Z"/><path class="cls-1" d="M77.91,103.33c.71,0,1.43,0,2.14,0a1.37,1.37,0,0,1,1.23,1.41A1.43,1.43,0,0,1,79.92,106c-1,0-2,0-3,0-.32,0-.64,0-1,0a1.38,1.38,0,0,1-1.33-.93,1.34,1.34,0,0,1,.73-1.65,1.27,1.27,0,0,1,.52-.09h2Z"/><path class="cls-1" d="M71.61,77.42a6.2,6.2,0,0,1-3.23-.71,1.35,1.35,0,1,1,1.26-2.39,3.79,3.79,0,0,0,1.9.43c.43,0,.86,0,1.29,0a1.35,1.35,0,0,1,.56,2.59,1.45,1.45,0,0,1-.47.09C72.53,77.43,72.13,77.42,71.61,77.42Z"/><path class="cls-1" d="M78.92,63.56H78a1.31,1.31,0,0,1-1.36-1.28A1.39,1.39,0,0,1,78,60.9a6.36,6.36,0,0,1,1.07,0,3.54,3.54,0,0,0,2.07-.59A1.44,1.44,0,0,1,83,60.6a1.37,1.37,0,0,1-.29,1.84,5.58,5.58,0,0,1-3.15,1.1h-.59Z"/><path class="cls-1" d="M67.38,63A1.26,1.26,0,0,1,68,61.84a6.64,6.64,0,0,1,2-.79,9.68,9.68,0,0,1,2.46-.16,1.38,1.38,0,0,1,1.29.78,1.29,1.29,0,0,1-.94,1.86,7.61,7.61,0,0,1-1.07,0,4.73,4.73,0,0,0-2.36.56,1.34,1.34,0,0,1-1.83-.42A3.29,3.29,0,0,1,67.38,63Z"/><path class="cls-1" d="M61.59,97.5c0-.44,0-1,.08-1.51a1.37,1.37,0,0,1,2.63-.34,1.74,1.74,0,0,1,0,.69c0,.75,0,1.5,0,2.25a4.25,4.25,0,0,0,.18.93,1.37,1.37,0,1,1-2.61.77A10.37,10.37,0,0,1,61.59,97.5Z"/><path class="cls-1" d="M80.07,82.21a1.34,1.34,0,0,1-1.37,1.44,1.38,1.38,0,0,1-1.17-.86,4.18,4.18,0,0,1-.17-.78,5.47,5.47,0,0,0-.93-2.47,1.75,1.75,0,0,1-.34-1.1A1.3,1.3,0,0,1,77,77.26a1.23,1.23,0,0,1,1.36.39,4,4,0,0,1,.59.87A8.25,8.25,0,0,1,80.07,82.21Z"/><path class="cls-1" d="M70.81,90.53A1.26,1.26,0,0,1,70,91.74a2.21,2.21,0,0,1-1,.16,3.69,3.69,0,0,0-2.44.71,1.35,1.35,0,0,1-2-.51,1.34,1.34,0,0,1,.36-1.55,10.06,10.06,0,0,1,1.45-.86,6.66,6.66,0,0,1,3.33-.47A1.26,1.26,0,0,1,70.81,90.53Z"/><path class="cls-1" d="M86.29,55.52c-.09.6-.16,1.2-.27,1.79a1.38,1.38,0,0,1-1.18,1,1.47,1.47,0,0,1-1.27-.66,1.24,1.24,0,0,1-.17-1A5.68,5.68,0,0,0,83.56,55a1.27,1.27,0,0,1,1.32-1.33A1.3,1.3,0,0,1,86.24,55c0,.18,0,.36,0,.53Z"/><path class="cls-2" d="M82.35,40.39c-.57-.8-1.08-1.51-1.58-2.23-.68-1-1.36-1.94-2-2.92a1.42,1.42,0,0,0-2.31,0l-3.2,4.66c0,.06-.1.1-.15.16-.2.24-.28.24-.46,0-.6-.85-1.21-1.7-1.8-2.55s-1-1.46-1.53-2.22A1.39,1.39,0,0,0,67,35.24c-.83,1.27-1.74,2.48-2.61,3.72l-1,1.45c-.38-.51-.7-.95-1-1.39l-1.89-2.75a.61.61,0,0,1,0-.86q1.82-2.85,3.62-5.72c1.46-2.33,2.9-4.67,4.36-7s3-4.65,4.43-7a2.9,2.9,0,0,1,.34-.4c.74,1.18,1.45,2.28,2.13,3.39s1.52,2.54,2.3,3.8L80.41,27c1,1.65,2,3.31,3,5,.66,1.07,1.31,2.14,2,3.19a.7.7,0,0,1,0,.91c-.92,1.27-1.81,2.57-2.71,3.86A4.17,4.17,0,0,1,82.35,40.39Z"/></svg>