<svg id="Layer_1" data-name="Layer 1" xmlns="http://www.w3.org/2000/svg" viewBox="0 0 595.45 350.75"><defs><style>.cls-1{fill:#567a3c;}.cls-2{fill:#fff;}.cls-3{fill:none;stroke:#fff;stroke-miterlimit:10;stroke-width:2px;}</style></defs><title>Montana</title><path class="cls-1" d="M12.85,9.51c-.25,4.13-.45,8-.72,11.89-.46,6.51-1,13-1.44,19.54-.25,3.49-.42,7-.67,10.47C9.54,58,9,64.63,8.55,71.25c-.25,3.43-.45,6.88-.64,10.32C7.6,87.5,7,93.44,7.1,99.38c0,4.69,1,9.37,1.24,14.08.11,1.82,1.16,2.63,2.21,3.77a46.62,46.62,0,0,1,3.88,5.31c.13.17-.06.56-.09.84l-1,10.43c-.16,1.67-.35,3.35-.51,5a.67.67,0,0,0,.08.42,26.31,26.31,0,0,0,3,4.12c3.09,2.94,6.37,5.69,9.56,8.53a2.19,2.19,0,0,1,.62,1c.92,2.94,1.75,5.92,2.72,8.84,1.21,3.67,2.3,7.41,3.85,10.94C34.54,177,37,181,39,185.34c1.18,2.61,2.76,4.26,5.64,4.82a18.29,18.29,0,0,1,10.95,6.27c.32.39.78.66,1.05,1.07a3.7,3.7,0,0,1,.81,1.76c0,2.68-.08,5.37-.34,8s-1,4.95-3.45,6.43a5.6,5.6,0,0,0-1.82,1.77q-3.09,5-6,10.05a5,5,0,0,0-.6,2.41c0,2.95,0,5.9.14,8.84a48.46,48.46,0,0,0,.39,5.53,56,56,0,0,0,1.36,6.27c.33,1.19.65,2.7,1.52,3.37,2.39,1.83,4.74,3.54,6.32,6.27,1.34,2.3,4.53,2.53,7.06.74a4.5,4.5,0,0,1,4.9-.44c.72.34,1.55.46,2.22.86a4.26,4.26,0,0,1,1.66,1.54c2.7,5.33,5.29,10.71,8,16.05a9.17,9.17,0,0,0,2.15,3.32c4.56,3.46,8.39,7.65,12.27,11.8a2.27,2.27,0,0,1,.63,1c.81,3.18,1.54,6.38,2.36,9.56a64.08,64.08,0,0,0,2,7.14c1.06,2.73,2.51,5.3,3.68,8,.79,1.82,1.67,3.46,3.55,4.41,1.14.58,2.14,1.78,3.31,1.93a23.08,23.08,0,0,1,8.45,2.53c6.52,3.63,13.81,5.38,20.79,7.88a2.18,2.18,0,0,0,1.65-.1A21.42,21.42,0,0,1,150.27,331c3.25-.1,6.47-1.15,9.76.15,2.2.88,4.62,1.2,6.87,2A10.5,10.5,0,0,0,177,331.64a10.18,10.18,0,0,1,5.57-1.89,1.76,1.76,0,0,1,1.8.87,8.64,8.64,0,0,0,2.19,1.82,14.91,14.91,0,0,0,1.9.87A54.9,54.9,0,0,1,201,341.86a2.55,2.55,0,0,0,1.53.73c1.59,0,5.29-3.09,5.33-5.11.09-5.4.33-10.79.52-16.19q.19-5.22.41-10.47c6.19.21,12.23.43,18.28.62l13.2.39c3.74.12,7.47.27,11.21.4l7.06.27c2.69.09,5.39.23,8.09.27,3.35,0,6.7,0,10.05,0s6.89.11,10.34.11,7-.12,10.48-.11c4.44,0,8.88.14,13.32.14,5.07,0,10.14-.11,15.2-.14,6.87-.05,13.73-.05,20.59-.11,3.75,0,7.5-.16,11.25-.21,6.36-.07,12.72-.08,19.09-.18s13-.3,19.54-.42c8.27-.15,16.54-.21,24.81-.41,6.17-.15,12.33-.43,18.49-.71,6.42-.29,12.84-.6,19.25-1,10-.65,19.94-1.4,29.91-2.1q10.37-.74,20.75-1.44,12-.81,24.05-1.57c6.92-.45,13.84-.86,20.76-1.29,5.86-.37,11.73-.69,17.58-1.15,4-.31,8-.82,12.32-1.29,0-3.6,0-7.14,0-10.68.06-4.74.22-9.49.25-14.23,0-2.95-.18-5.9-.2-8.85-.05-6.12,0-12.24-.09-18.35,0-4.11-.15-8.21-.2-12.32-.06-6-.08-11.92-.13-17.88,0-3-.13-6-.16-9,0-4.92,0-9.83-.11-14.75,0-3.85-.17-7.7-.23-11.55-.11-7.56-.17-15.13-.28-22.7-.09-6.36-.23-12.72-.32-19.08-.11-7.72-.19-15.44-.3-23.16-.09-6.46-.23-12.92-.3-19.38-.07-7.11-.07-14.22-.12-21.34,0-4.06-.13-8.12-.16-12.18,0-5.86,0-11.73-.11-17.59,0-3.8-.18-7.59-.21-11.39,0-5.07,0-10.15,0-15.22,0-1.67-.12-3.33-.18-4.9-1.56,0-2.81-.06-4.06,0-4.46.22-8.92.54-13.38.73-7.72.33-15.44.58-23.16.88-4.92.19-9.83.41-14.75.62-3.81.15-7.62.27-11.43.46-4.51.23-9,.56-13.52.76q-11.66.49-23.32.88c-5,.18-10,.4-15,.46-5.57.06-11.13-.07-16.7-.07-7.37,0-14.75,0-22.13,0q-11.52,0-23,0c-7.33,0-14.67,0-22,0-8.73,0-17.46,0-26.19,0-5.52,0-11,0-16.56,0l-13.84.06c-3.25,0-6.5,0-9.75,0-3.6,0-7.2-.06-10.8-.06-3.4,0-6.79.07-10.18,0-5.55-.08-11.1-.25-16.65-.35-6.45-.11-12.9-.19-19.36-.29l-17.1-.29c-5.3-.08-10.6-.12-15.9-.22-6.55-.12-13.1-.29-19.65-.42-5.6-.11-11.2-.16-16.8-.3s-11.09-.37-16.64-.55l-10.17-.34c-4.66-.17-9.3-.37-14-.53-3.34-.11-6.68-.15-10-.27-5.74-.2-11.48-.46-17.22-.67-5.3-.2-10.59-.34-15.88-.54-5.65-.21-11.29-.47-16.93-.69-4.4-.17-8.82-.11-13.2-.48-7.48-.63-14.94-1.53-22.42-2.28-4.61-.47-9.23-.85-13.84-1.3-5.8-.57-11.59-1.18-17.39-1.73C16.68,9.65,14.8,9.61,12.85,9.51Z"/><circle class="cls-2" cx="83.92" cy="22.29" r="15.79"/><line class="cls-3" x1="83.92" y1="34.35" x2="83.92" y2="52.09"/></svg>