<svg id="Layer_1" data-name="Layer 1" xmlns="http://www.w3.org/2000/svg" viewBox="0 0 142.37 130.17"><defs><style>.cls-1{fill:#fff;}</style></defs><title>Raff</title><path class="cls-1" d="M101,85.07l-6.28-2.81c-1.34-.6-2.69-1.17-4-1.76-1.17-.52-1.43-1.19-.93-2.44.36-.89.72-1.78,1.07-2.68a.6.6,0,0,0,0-.21l-4.06-1.76c-.4,2.43-.72,4.81-1.2,7.15-2.08,10.19-6,19.47-12.78,27.27-1,1.18-1.73,1.19-2.75,0-6-6.89-9.8-15-12.06-24A76.37,76.37,0,0,1,55.83,60.6a.83.83,0,0,0-.58-1C53.83,59,52.42,58.39,51,57.78a1.22,1.22,0,0,0-.21,0c-.37.92-.75,1.85-1.12,2.79-.51,1.24-1.16,1.53-2.32,1L33.8,55.64c-1.18-.52-1.43-1.16-.92-2.43.29-.75.56-1.51.91-2.23s.23-1-.41-1.37a5.07,5.07,0,0,1-3.52,1.83,4.63,4.63,0,0,1-.83,0A1.44,1.44,0,0,1,27.79,50a1.37,1.37,0,0,1,1.32-1.44A3,3,0,0,0,32,46.43c.3-.67.68-1.17,1.44-1.16s1.16.51,1.42,1.2a7.72,7.72,0,0,0,.41.78c.39-1,.73-1.79,1.08-2.63a1.42,1.42,0,0,1,2.12-.91q6.88,3,13.75,6a1.54,1.54,0,0,1,.9,2.27c-.37,1-.76,1.89-1.13,2.83A.68.68,0,0,0,52,55l4.14,1.81a74.92,74.92,0,0,1,2.48-12.94,53.92,53.92,0,0,1,11.33-21.4c1.19-1.33,1.8-1.34,3,0,5.75,6.44,9.37,14.08,11.63,22.46A75.82,75.82,0,0,1,87,69.39c0,.69.11,1,.77,1.24a14.19,14.19,0,0,1,1.46.62l.21.06-.19-.42a1.43,1.43,0,0,1,1.25-2.16,2.9,2.9,0,0,0,2.78-1.91c.31-.63.67-1.11,1.4-1.11s1.1.46,1.41,1.09a3.18,3.18,0,0,0,5.86,0c.29-.63.66-1.11,1.4-1.11s1.13.5,1.44,1.16a2.81,2.81,0,0,0,2.73,1.85A1.42,1.42,0,0,1,109,70.11a1.46,1.46,0,0,1-1.39,1.55,4.9,4.9,0,0,1-3.63-1.24c-.2-.16-.38-.34-.57-.51l-1.76,1.37,2.58,1.14,4.79,2.1c1.21.53,1.47,1.17,1,2.41-1.15,2.84-2.29,5.69-3.44,8.54a1.48,1.48,0,0,1-2.29.94l-2.94-1.2Zm-29.6-60c-.59.73-1.12,1.36-1.61,2a54.39,54.39,0,0,0-9.51,21.59c-.6,2.78-.94,5.62-1.36,8.44,0,.3.05.85.23.93,1.83.86,3.69,1.64,5.59,2.47,0-.28,0-.48,0-.69a6.81,6.81,0,0,1,6.38-6.53,6.6,6.6,0,0,1,6.75,5.88A45.24,45.24,0,0,1,78,64.56c0,1.83,0,1.83,1.64,2.54l4.5,2c0-.32,0-.55.06-.78a79.8,79.8,0,0,0-.91-15.59,60.94,60.94,0,0,0-6.95-20.46A42.17,42.17,0,0,0,71.39,25.11Zm-12.78,36a77.66,77.66,0,0,0,1.32,18.59A58.32,58.32,0,0,0,69.07,102c.72,1,1.5,2,2.31,3.08l.81-1a53.72,53.72,0,0,0,9.89-21c.8-3.36,1.23-6.83,1.81-10.26,0-.24-.07-.7-.24-.78-1.83-.84-3.68-1.63-5.57-2.45,0,.21,0,.34,0,.47C77.8,74,74.84,77,71.26,76.83a6.82,6.82,0,0,1-6.48-7.14c0-1.75,0-3.51,0-5.26,0-.25-.09-.65-.25-.73C62.59,62.82,60.65,62,58.61,61.1ZM47.45,58.4,50,52,38.48,46.91l-2.59,6.44Zm56.88,24.86c.87-2.18,1.72-4.29,2.59-6.44l-11.56-5-2.59,6.44ZM67.62,65v.91c0,1.46-.05,2.93,0,4.39a3.78,3.78,0,0,0,4.43,3.48,4.3,4.3,0,0,0,3.08-5.29.65.65,0,0,0-.35-.34C72.46,67.14,70.11,66.12,67.62,65Zm7.57.11v-.9c0-1.47,0-2.94,0-4.4a3.77,3.77,0,0,0-4.5-3.46,4.3,4.3,0,0,0-3,5.26A.65.65,0,0,0,68,62C70.35,63,72.7,64.05,75.19,65.14ZM92,72.49l.4-1-2,.28Z"/><path class="cls-1" d="M106.19,41.73a6.12,6.12,0,0,1-8.69,0,5.75,5.75,0,0,1-4.17,1.79,5.38,5.38,0,0,1-4.2-1.88c-.32.26-.61.53-.92.78a4.56,4.56,0,0,1-3.38,1.06A1.43,1.43,0,0,1,83.48,42a1.36,1.36,0,0,1,1.33-1.42,2.92,2.92,0,0,0,2.84-2.06c.3-.65.64-1.18,1.41-1.2s1.17.55,1.49,1.23a2.94,2.94,0,0,0,5.57.05,1.52,1.52,0,0,1,1.37-1.06,1.49,1.49,0,0,1,1.38,1,3,3,0,0,0,2.79,2,3.06,3.06,0,0,0,3.16-2,1.42,1.42,0,0,1,1.32-1,1.46,1.46,0,0,1,1.39,1,2.94,2.94,0,0,0,2.86,2A1.39,1.39,0,0,1,111.8,42a1.45,1.45,0,0,1-1.38,1.47A5.1,5.1,0,0,1,106.19,41.73Z"/><path class="cls-1" d="M51,81.3c-3.21,2.47-5.44,2.48-8.69,0a5.86,5.86,0,0,1-8.41,0l-.55.48A4.89,4.89,0,0,1,29.6,83a1.43,1.43,0,0,1-1.37-1.48,1.37,1.37,0,0,1,1.38-1.46A3,3,0,0,0,32.51,78a1.42,1.42,0,0,1,1.35-1,1.46,1.46,0,0,1,1.33,1,3,3,0,0,0,5.71,0,1.47,1.47,0,0,1,1.38-1,1.51,1.51,0,0,1,1.36,1.06,3,3,0,0,0,2.66,2,3.06,3.06,0,0,0,3.22-1.92c.3-.64.69-1.11,1.41-1.11s1.1.47,1.4,1.11A2.82,2.82,0,0,0,55.1,80.1a1.4,1.4,0,0,1,1.44,1.48A1.46,1.46,0,0,1,55.07,83a4.89,4.89,0,0,1-3.44-1.15Z"/><path class="cls-1" d="M101,85.07l.29.14c.24.36.5.71.71,1.09a3,3,0,0,0,2.77,1.81,2.91,2.91,0,0,0,2.75-1.83c.32-.64.67-1.19,1.43-1.2s1.16.56,1.49,1.23a2.78,2.78,0,0,0,2.69,1.79,1.4,1.4,0,0,1,1.46,1.46A1.44,1.44,0,0,1,113.14,91,5.31,5.31,0,0,1,109,89.26a5.8,5.8,0,0,1-8.38,0c-3.29,2.47-5.37,2.47-8.75,0a5.18,5.18,0,0,1-4,1.75,1.5,1.5,0,0,1-1.62-1.48,1.47,1.47,0,0,1,1.61-1.48,2.8,2.8,0,0,0,2.58-1.84c.32-.65.68-1.18,1.45-1.17s1.11.54,1.43,1.19A2.9,2.9,0,0,0,96,88.11a3,3,0,0,0,3.11-1.84A1.72,1.72,0,0,1,101,85.07Z"/><path class="cls-1" d="M53.7,31.65a5.7,5.7,0,0,1-8.41.08,6.06,6.06,0,0,1-8.64,0,5.22,5.22,0,0,1-4.27,1.78,1.44,1.44,0,0,1-1.24-2,1.28,1.28,0,0,1,1.3-.89,2.86,2.86,0,0,0,2.81-2,1.54,1.54,0,0,1,1.36-1.07A1.53,1.53,0,0,1,38,28.63a3,3,0,0,0,2.83,2,3,3,0,0,0,3.06-2,1.48,1.48,0,0,1,1.42-1.08,1.51,1.51,0,0,1,1.35,1.07,3,3,0,0,0,2.82,2,3,3,0,0,0,2.74-2c.06-.12.1-.24.15-.36a1.4,1.4,0,0,1,2.64,0c.59,1.38,1.42,2.37,3,2.34A1.33,1.33,0,0,1,59.33,32a1.41,1.41,0,0,1-1.28,1.47,4.47,4.47,0,0,1-3.33-1C54.38,32.26,54.06,32,53.7,31.65Z"/></svg>