<svg id="Layer_1" data-name="Layer 1" xmlns="http://www.w3.org/2000/svg" viewBox="0 0 142.37 130.17"><defs><style>.cls-1{fill:#fff;}</style></defs><title>Scene</title><path class="cls-1" d="M108.21,83.81A16.06,16.06,0,0,1,98,88c-1.2.06-1.8-.38-1.83-1.26s.54-1.33,1.75-1.4a12.87,12.87,0,0,0,7.59-2.7,6.31,6.31,0,0,0,2.75-5.6c-.15-2.13,0-4.27,0-6.25-1.89.8-3.75,1.61-5.64,2.38a5.47,5.47,0,0,1-1.4.31,1.29,1.29,0,0,1-1.61-1.14c-.12-.81.35-1.28,1.16-1.49a24.77,24.77,0,0,0,3.37-1,7.76,7.76,0,0,0,4.2-4.06,1.87,1.87,0,0,1,1.3-.95,1.66,1.66,0,0,1,1.22.9c1.28,2.88,3.69,4.21,6.55,5a6.77,6.77,0,0,0,.87.19c.92.11,1.42.6,1.3,1.56s-.81,1.21-1.86,1a13.89,13.89,0,0,1-6.16-2.6c-.14-.1-.3-.19-.64-.4,0,1.64,0,3.14,0,4.63,0,2.4-.23,4.78,1.76,6.71a13,13,0,0,0,7.92,3.54c.37,0,.74,0,1.11.07.8.1,1.35.55,1.31,1.37A1.26,1.26,0,0,1,121.48,88a16.1,16.1,0,0,1-9.66-3.38l-.95-.76v4.25a22.07,22.07,0,0,1,0,2.44c-.37,3.31,1.36,5.56,3.79,7.39,2.7,2,5.87,2.68,9.17,2.84.22,0,.45,0,.67,0,.91,0,1.53.31,1.62,1.26s-.6,1.44-1.64,1.38a35.82,35.82,0,0,1-4.73-.52,16,16,0,0,1-8.8-4.7v17.48h13.17c.3,0,.69-.11.87,0,.43.37,1.06.86,1.06,1.29s-.63,1-1.09,1.28c-.24.18-.71,0-1.08,0H21.94c-1.65,0-2.25-.34-2.28-1.29s.63-1.37,2.3-1.37H34.81V98.28c-.54.47-1,.89-1.46,1.27-3.55,2.81-7.7,3.77-12.12,3.85-.88,0-1.57-.39-1.55-1.35s.66-1.31,1.57-1.3a15.53,15.53,0,0,0,7.53-1.52A18.55,18.55,0,0,0,33,96.1a6.19,6.19,0,0,0,1.93-5c-.15-2.34,0-4.7,0-7.23-.34.24-.51.35-.67.48A15.93,15.93,0,0,1,24.55,88c-.93,0-1.63-.21-1.76-1.23-.1-.8.57-1.25,1.61-1.45A34.49,34.49,0,0,0,30,83.87a10.83,10.83,0,0,0,3.26-2.41,5.24,5.24,0,0,0,1.63-4.19c-.11-2.23,0-4.48,0-6.54-1.92.82-3.79,1.64-5.68,2.4a4.85,4.85,0,0,1-1.51.32,1.25,1.25,0,0,1-1.48-1.16,1.23,1.23,0,0,1,1.05-1.45c.86-.22,1.74-.38,2.57-.68A8.36,8.36,0,0,0,35,65.7a1.82,1.82,0,0,1,1.3-.93,1.66,1.66,0,0,1,1.21.91c1.29,2.87,3.7,4.2,6.56,4.94l.76.16c1.07.23,1.59.81,1.43,1.59s-.88,1.19-2,1a14.07,14.07,0,0,1-6.5-2.92,4.28,4.28,0,0,0-.14.76c0,2.36,0,4.73,0,7.09A3.62,3.62,0,0,0,38,79.86C39.71,83,42.58,84.35,45.88,85c.76.16,1.54.19,2.31.28s1.5.51,1.41,1.48S48.88,88,48,88A16.09,16.09,0,0,1,37.66,83.9c0,.41-.09.71-.09,1,0,2.41,0,4.81,0,7.21a4.71,4.71,0,0,0,.48,2c1.9,3.69,5.18,5.44,9.08,6.22a30.53,30.53,0,0,0,4,.41c1.11.08,1.68.48,1.63,1.35-.06,1.07-.8,1.34-1.69,1.32-5-.14-9.57-1.38-13.37-5.12v17.28h33.8V98.21a14.42,14.42,0,0,1-7,4.18,49.77,49.77,0,0,1-6.32,1c-1.13.12-1.81-.5-1.82-1.33s.63-1.29,1.81-1.3a18.08,18.08,0,0,0,7.43-1.53A11.38,11.38,0,0,0,70,95.8a6.59,6.59,0,0,0,1.6-4.57c-.13-2.38,0-4.78,0-7.36-.39.29-.64.47-.88.67A16,16,0,0,1,61,88c-.86,0-1.48-.3-1.55-1.2s.56-1.29,1.44-1.47a38.46,38.46,0,0,0,5.76-1.42,9.75,9.75,0,0,0,3.11-2.23,5.43,5.43,0,0,0,1.79-4.46c-.13-2.2,0-4.42,0-6.47-1.87.8-3.73,1.62-5.61,2.4a5.49,5.49,0,0,1-1.51.32,1.25,1.25,0,0,1-1.53-1.09A1.27,1.27,0,0,1,64,70.82a23,23,0,0,0,3.07-.89,8,8,0,0,0,4.52-4.18,1.9,1.9,0,0,1,1.28-1,1.61,1.61,0,0,1,1.24.85c1.29,2.94,3.73,4.27,6.64,5,.32.08.65.13,1,.2a1.24,1.24,0,0,1,1.11,1.6,1.26,1.26,0,0,1-1.59,1,14.07,14.07,0,0,1-6.39-2.62l-.56-.4c0,.35-.08.61-.09.88,0,1.92.12,3.85,0,5.77a6.11,6.11,0,0,0,2.38,5.22,12.58,12.58,0,0,0,7.48,3c.33,0,.66,0,1,.06a1.28,1.28,0,0,1,1.24,1.43A1.23,1.23,0,0,1,84.85,88a16,16,0,0,1-9.57-3.28c-.29-.23-.57-.47-1-.83,0,.47-.06.81-.06,1.16,0,2.07.1,4.14,0,6.2a6.49,6.49,0,0,0,1.67,4.66c2.34,2.92,5.55,4.18,9.13,4.68a22.92,22.92,0,0,0,2.87.18c.93,0,1.56.38,1.57,1.32s-.68,1.36-1.57,1.34c-4.9-.11-9.44-1.23-13.1-4.75l-.44-.39v17.33h33.82V98.25a14,14,0,0,1-6.35,3.93,55.85,55.85,0,0,1-7.17,1.19c-1.22.14-2-.92-1.46-1.8a2.14,2.14,0,0,1,1.52-.78,15.36,15.36,0,0,0,11.37-4.33A6.55,6.55,0,0,0,108.24,91C108.08,88.71,108.21,86.39,108.21,83.81Z"/><path class="cls-1" d="M73,45.19l.72-1.08L93.1,13.24c.14-.22.27-.44.42-.65a1.33,1.33,0,0,1,2.42,0c.73,1.11,1.4,2.26,2.1,3.39l27.29,44.23c.12.19.24.37.35.56.61,1,.54,1.77-.2,2.22s-1.44.17-2.07-.84l-13-21c-.21-.34-.43-.66-.73-1.12-1.26,1.81-2.44,3.49-3.62,5.17s-1.92,1.66-3.07,0l-3.53-5c-1.25,1.79-2.42,3.47-3.6,5.14-1,1.42-1.89,1.42-2.9,0-1.17-1.66-2.33-3.33-3.59-5.13l-2,2.8c-.57.81-1.13,1.64-1.71,2.45-.9,1.25-1.84,1.26-2.71,0-1-1.42-2-2.85-3-4.27-.21-.29-.44-.57-.71-.93l-.78,1.18Q72,51.75,65.57,62c-.23.37-.49.85-.84,1a1.61,1.61,0,0,1-1.4-.09,2.17,2.17,0,0,1-.46-1.43c0-.32.31-.65.51-1,2.51-4,5-8,7.53-12a1.37,1.37,0,0,0,.19-1.15c-1.42-2.42-2.91-4.79-4.48-7.33L63,45.22c-1.16,1.65-1.92,1.65-3.08,0l-3.51-5C55.15,42,54,43.64,52.8,45.31c-1,1.48-1.91,1.47-3,0L46.3,40.23c-.3.41-.56.73-.8,1.07-1,1.45-2,2.92-3.06,4.35a1.36,1.36,0,0,1-2.44,0c-1.28-1.76-2.51-3.55-3.82-5.42l-4.77,7.59q-4.43,7-8.86,14.07a5.21,5.21,0,0,1-.62.91,1.12,1.12,0,0,1-1.68.14,2.7,2.7,0,0,1-.46-1.55c0-.27.3-.57.48-.85L50.12,13.07c1.06-1.68,2-1.69,3,0Q62.67,28.53,72.22,44Zm11.33-2.42,3.63-5.18c1-1.44,1.86-1.43,2.88,0l3.6,5.15c1.3-1.85,2.5-3.58,3.71-5.29.87-1.22,1.83-1.22,2.71,0,1.22,1.72,2.41,3.45,3.69,5.28,1-1.5,2-3,3-4.33a1.35,1.35,0,0,0,.08-1.83c-4.12-6.61-8.2-13.24-12.3-19.87-.18-.3-.39-.6-.65-1-.55.86-1,1.63-1.54,2.41Q87.23,27.57,81.33,37a1.38,1.38,0,0,0-.21,1.13C82.11,39.69,83.2,41.18,84.31,42.77Zm-22.87,0c1.07-1.53,2-3,3.07-4.36a1.3,1.3,0,0,0,.07-1.74c-4.14-6.64-8.23-13.3-12.34-20-.18-.29-.4-.56-.67-.94C47,23,42.5,30.18,38,37.33a.85.85,0,0,0-.09.7c1,1.57,2.15,3.11,3.28,4.74l3.68-5.25c.94-1.33,1.82-1.33,2.75,0,1.21,1.71,2.41,3.43,3.69,5.26,1.25-1.78,2.42-3.47,3.61-5.16,1-1.41,1.89-1.4,2.9,0Z"/></svg>